<svg width="31" height="27" viewBox="0 0 31 27" fill="none" xmlns="http://www.w3.org/2000/svg">
<path d="M9.36095 6.25426C9.54382 6.21311 9.69006 6.07615 9.74309 5.89637C9.79611 5.71659 9.74761 5.52219 9.61635 5.38838C9.48509 5.25458 9.29165 5.20236 9.11089 5.25193C4.96786 6.2828 2.06147 10.0056 2.06665 14.275C2.06665 14.5603 2.29797 14.7917 2.58332 14.7917C2.86867 14.7917 3.09999 14.5603 3.09999 14.275C3.09541 10.4802 5.67853 7.17102 9.36095 6.25426Z" fill="#F3CD82"/>
<path d="M29.45 17.375H22.7333V14.275C22.7375 11.9753 22.0388 9.72927 20.7307 7.83785L21.0113 4.3426C21.0519 3.83863 20.8442 3.34651 20.4548 3.02406C18.9612 1.80837 17.2369 0.907794 15.3858 0.376662C14.857 0.230922 14.2907 0.377779 13.8994 0.762096L11.6736 2.92331C11.5733 2.92073 11.47 2.90833 11.3667 2.90833C5.09197 2.91545 0.00710294 8.00031 -1.52588e-05 14.275V23.575C0.00169355 25.2864 1.38861 26.6733 3.09998 26.675H19.1167C20.9129 26.6729 22.4354 25.3528 22.692 23.575H27.3833V25.125C27.3833 25.981 28.0773 26.675 28.9333 26.675H29.45C30.306 26.675 31 25.981 31 25.125V18.925C31 18.069 30.306 17.375 29.45 17.375ZM14.6217 1.4999C14.7471 1.37317 14.9308 1.3233 15.1032 1.36918C16.8189 1.86236 18.4172 2.6975 19.8018 3.82438C19.9287 3.93273 19.9955 4.09573 19.981 4.262L19.7883 6.66036C19.6602 6.51931 19.5398 6.37258 19.4044 6.23721C17.6823 4.51145 15.447 3.39055 13.0339 3.04266L14.6217 1.4999ZM6.19998 25.6417H3.09998C1.9586 25.6417 1.03332 24.7164 1.03332 23.575V18.925C1.03332 18.6396 1.26464 18.4083 1.54998 18.4083H1.9473C2.13608 18.4084 2.3098 18.5114 2.40042 18.677C3.44216 20.6162 5.0281 22.2087 6.9631 23.2583C7.1298 23.3472 7.23375 23.5209 7.23332 23.7098V25.125C7.23332 25.4103 7.002 25.6417 6.71665 25.6417H6.19998ZM21.7 23.0583C21.6983 24.4844 20.5427 25.64 19.1167 25.6417H8.17158C8.23278 25.4762 8.26494 25.3014 8.26665 25.125V23.7098C8.26947 23.1332 7.94845 22.6038 7.43585 22.3396C5.69044 21.3761 4.25754 19.9328 3.30665 18.1805C3.03467 17.6838 2.51353 17.375 1.9473 17.375H1.54998C1.37357 17.3767 1.19878 17.4089 1.03332 17.4701V14.275C1.03332 8.56805 5.65971 3.94166 11.3667 3.94166C17.0736 3.94166 21.7 8.56805 21.7 14.275V23.0583ZM22.7333 22.5417V18.4083H24.2833V19.4417C24.2833 19.727 24.5146 19.9583 24.8 19.9583C25.0853 19.9583 25.3167 19.727 25.3167 19.4417V18.4083H27.3833V22.5417H22.7333ZM29.9667 25.125C29.9667 25.4103 29.7353 25.6417 29.45 25.6417H28.9333C28.648 25.6417 28.4167 25.4103 28.4167 25.125V18.4083H29.45C29.7353 18.4083 29.9667 18.6396 29.9667 18.925V25.125Z" fill="#F3CD82"/>
<path d="M11.3667 6.00831C11.652 6.00831 11.8833 5.77699 11.8833 5.49164C11.8833 5.2063 11.652 4.97498 11.3667 4.97498C11.0813 4.97498 10.85 5.2063 10.85 5.49164C10.85 5.77699 11.0813 6.00831 11.3667 6.00831Z" fill="#F3CD82"/>
<path d="M16.5333 22.5417C16.5333 23.6831 17.4586 24.6083 18.6 24.6083C19.7414 24.6083 20.6667 23.6831 20.6667 22.5417C20.6667 21.4003 19.7414 20.475 18.6 20.475C17.4586 20.475 16.5333 21.4003 16.5333 22.5417ZM19.6333 22.5417C19.6333 23.1124 19.1707 23.575 18.6 23.575C18.0293 23.575 17.5667 23.1124 17.5667 22.5417C17.5667 21.971 18.0293 21.5083 18.6 21.5083C19.1707 21.5083 19.6333 21.971 19.6333 22.5417Z" fill="white"/>
<path d="M11.3666 9.10834C8.22783 9.10834 5.68332 11.6529 5.68332 14.7917C5.68332 17.9305 8.22783 20.475 11.3666 20.475C14.5055 20.475 17.05 17.9305 17.05 14.7917C17.0463 11.6544 14.5039 9.11204 11.3666 9.10834ZM11.3666 19.4417C8.79853 19.4417 6.71665 17.3598 6.71665 14.7917C6.71665 12.2235 8.79853 10.1417 11.3666 10.1417C13.9348 10.1417 16.0167 12.2235 16.0167 14.7917C16.0138 17.3586 13.9336 19.4388 11.3666 19.4417Z" fill="#F3F3F3"/>
</svg>
